<?xml version="1.0" encoding="UTF-8" standalone="no"?>
<svg
   width="16"
   height="16"
   version="1.1"
   id="svg9"
   sodipodi:docname="info.svg"
   inkscape:version="1.2.2 (b0a8486541, 2022-12-01)"
   xmlns:inkscape="http://www.inkscape.org/namespaces/inkscape"
   xmlns:sodipodi="http://sodipodi.sourceforge.net/DTD/sodipodi-0.dtd"
   xmlns="http://www.w3.org/2000/svg"
   xmlns:svg="http://www.w3.org/2000/svg">
  <sodipodi:namedview
     id="namedview11"
     pagecolor="#ffffff"
     bordercolor="#000000"
     borderopacity="0.25"
     inkscape:showpageshadow="2"
     inkscape:pageopacity="0.0"
     inkscape:pagecheckerboard="0"
     inkscape:deskcolor="#d1d1d1"
     showgrid="false"
     inkscape:zoom="48.875"
     inkscape:cx="8.0306905"
     inkscape:cy="8.0818414"
     inkscape:window-width="1920"
     inkscape:window-height="1011"
     inkscape:window-x="0"
     inkscape:window-y="0"
     inkscape:window-maximized="1"
     inkscape:current-layer="svg9" />
  <defs
     id="defs3">
    <style
       id="current-color-scheme"
       type="text/css">
   .ColorScheme-Text { color:#dfdfdf; } .ColorScheme-Highlight { color:#4285f4; } .ColorScheme-NeutralText { color:#ff9800; } .ColorScheme-PositiveText { color:#4caf50; } .ColorScheme-NegativeText { color:#f44336; }
  </style>
  </defs>
  <path
     style="fill:currentColor"
     class="ColorScheme-Text"
     d="M 8,0 C 3.5935666,0 0,3.5935666 0,8 c 0,4.406433 3.5935666,8 8,8 4.406433,0 8,-3.593567 8,-8 C 16,3.5935666 12.406433,0 8,0 Z m 0,2 c 3.325553,0 6,2.6744469 6,6 0,3.325553 -2.674447,6 -6,6 C 4.6744469,14 2,11.325553 2,8 2,4.6744469 4.6744469,2 8,2 Z"
     id="path7" />
  <text
     xml:space="preserve"
     style="font-size:13.1643px;fill:#dfdfdf;stroke-width:0.75;fill-opacity:1;stroke:#dfdfdf;stroke-opacity:1;stroke-dasharray:none;stroke-linecap:round;stroke-linejoin:round"
     x="5.8989668"
     y="12.74585"
     id="text225"
     transform="scale(1.0196667,0.98071261)"><tspan
       sodipodi:role="line"
       id="tspan223"
       x="5.8989668"
       y="12.74585"
       style="font-style:normal;font-variant:normal;font-weight:normal;font-stretch:normal;font-family:'DejaVu Serif';-inkscape-font-specification:'DejaVu Serif';stroke-width:0.75;fill:#dfdfdf;fill-opacity:1;stroke:#dfdfdf;stroke-opacity:1;stroke-dasharray:none;stroke-linecap:round;stroke-linejoin:round">i</tspan></text>
</svg>
